# xmcd
#
# Track frame offsets:
#	183
#	10458
#	22315
#	34690
#	44545
#	60650
#	77520
#	88253
#	99000
#	110490
#	122668
#	133213
#	145455
#	155810
#	163853
#	176345
#	187233
#	199893
#	209463
#	220965
#	228925
#	242178
#	254143
#	265683
#	273878
#
# Disc length: 3849 seconds
# Revision: 4
# Processed by: cddbd v1.5.2PL0 Copyright (c) Steve Scherf et al.
# Submitted via: dBpowerAMP V12.0
#
DISCID=7c0f0719
DTITLE=Various Artist - Country Bonanza
DYEAR=1992
DGENRE=Country
TTITLE0=Patsy Cline - Pick Me Up On Your Way Down
TTITLE1=Charlie Rich - Behind Closed Doors
TTITLE2=Tammy Wynette - Stand By Your Man
TTITLE3=Freddy Fender - Before The Next Teardrop Falls
TTITLE4=David Frizell - Ragtime Blues Guitar
TTITLE5=Hoyt Axton - Wild Bull Rider
TTITLE6=Lynn Anderson - Even Cowgirls Get The Blues
TTITLE7=Barbara Mandrell And Don Williams - The Wayward Wind
TTITLE8=George Jones - Willow Up Above
TTITLE9=Bobby Bare - Tequila Sheila
TTITLE10=Conway Twitty - Born To Sing The Blues
TTITLE11=Johnny Horton - Done Roving
TTITLE12=Dave Dudley - Seven Lonely Days
TTITLE13=Barbara Fairchild - Gotta Travel On
TTITLE14=Ferlin Husky - The Letter You Promised To Write
TTITLE15=Jimmy Dean - Nine Pound Hammer
TTITLE16=Jerry Wallace - Shutters And Boards
TTITLE17=Skeeter Davis - Turn Your Radio On
TTITLE18=Lynn Anderson - I Never Promised You A Rose Garden
TTITLE19=The Haggers - Hey Good Lookin'
TTITLE20=Faron Young - It's Four In The Morning
TTITLE21=Johnny Cash - Give My Love To Rose
TTITLE22=George Jones - Heartaches By The Number
TTITLE23=Roger Miller - Dang Me
TTITLE24=Glen Campbell - Rhinestone Cowboy
EXTD=
EXTT0=
EXTT1=
EXTT2=
EXTT3=
EXTT4=
EXTT5=
EXTT6=
EXTT7=
EXTT8=
EXTT9=
EXTT10=
EXTT11=
EXTT12=
EXTT13=
EXTT14=
EXTT15=
EXTT16=
EXTT17=
EXTT18=
EXTT19=
EXTT20=
EXTT21=
EXTT22=
EXTT23=
EXTT24=
PLAYORDER=
